# 3ds Max Wavefront OBJ Exporter v0.97b - (c)2007 guruware
# File Created: 15.09.2014 22:14:03

mtllib vial.mtl

#
# object VIFS001
#

v  0.437500 0.500000 0.437500
v  0.375000 0.500000 0.375000
v  0.437500 0.500000 0.562500
v  0.375000 0.500000 0.625000
v  0.562500 0.500000 0.562500
v  0.625000 0.500000 0.625000
v  0.562500 0.500000 0.437500
v  0.625000 0.500000 0.375000
v  0.375000 0.000000 0.625000
v  0.375000 0.000000 0.375000
v  0.625000 0.000000 0.625000
v  0.625000 0.000000 0.375000
v  0.562500 0.531250 0.437500
v  0.562500 0.531250 0.562500
v  0.437500 0.531250 0.437500
v  0.437500 0.531250 0.562500
v  0.593750 0.531250 0.406250
v  0.593750 0.531250 0.593750
v  0.406250 0.531250 0.406250
v  0.406250 0.531250 0.593750
v  0.593750 0.593750 0.406250
v  0.593750 0.593750 0.593750
v  0.406250 0.593750 0.406250
v  0.406250 0.593750 0.593750
# 24 vertices

vn 0.000000 1.000000 0.000000
vn -1.000000 0.000000 0.000000
vn 0.000000 0.000000 1.000000
vn 1.000000 0.000000 0.000000
vn 0.000000 0.000000 -1.000000
vn 0.000000 -1.000000 0.000000
# 6 vertex normals

vt 0.687500 0.062500 0.000000
vt 0.750000 0.000000 0.000000
vt 0.687500 0.187500 0.000000
vt 0.750000 0.250000 0.000000
vt 0.562500 0.187500 0.000000
vt 0.500000 0.250000 0.000000
vt 0.562500 0.062500 0.000000
vt 0.500000 0.000000 0.000000
vt 0.000000 0.500000 0.000000
vt 0.000000 0.250000 0.000000
vt 0.500000 0.500000 0.000000
vt 0.000000 0.750000 0.000000
vt 0.500000 0.750000 0.000000
vt 0.000000 1.000000 0.000000
vt 0.500000 1.000000 0.000000
vt 0.000000 -0.000000 0.000000
vt 0.500000 -0.000000 0.000000
vt 0.750000 0.500000 0.000000
vt 0.843750 0.062500 0.000000
vt 0.843750 0.187500 0.000000
vt 0.812500 0.062500 0.000000
vt 0.812500 0.187500 0.000000
vt 0.843750 0.093750 0.000000
vt 0.968750 0.093750 0.000000
vt 0.843750 0.125000 0.000000
vt 0.968750 0.125000 0.000000
vt 0.781250 0.187500 0.000000
vt 0.781250 0.062500 0.000000
vt 0.968750 0.062500 0.000000
vt 0.687500 0.781250 0.000000
vt 0.750000 0.718750 0.000000
vt 0.750000 0.906250 0.000000
vt 0.562500 0.718750 0.000000
vt 0.625000 0.781250 0.000000
vt 0.562500 0.906250 0.000000
vt 0.625000 0.843750 0.000000
vt 0.687500 0.843750 0.000000
vt 0.812500 0.718750 0.000000
vt 0.812500 0.906250 0.000000
vt 0.562500 0.656250 0.000000
vt 0.750000 0.656250 0.000000
vt 0.500000 0.906250 0.000000
vt 0.500000 0.718750 0.000000
vt 0.750000 0.968750 0.000000
vt 0.562500 0.968750 0.000000
vt 1.000000 0.718750 0.000000
vt 1.000000 0.906250 0.000000
# 47 texture coords

g VIFS001
usemtl Material__25
s 1
f 1/1/1 2/2/1 3/3/1
f 3/3/1 2/2/1 4/4/1
f 3/3/1 4/4/1 5/5/1
f 5/5/1 4/4/1 6/6/1
f 5/5/1 6/6/1 7/7/1
f 7/7/1 6/6/1 8/8/1
f 7/7/1 8/8/1 1/1/1
f 1/1/1 8/8/1 2/2/1
s 2
f 4/9/2 2/10/2 9/11/2
f 9/11/2 2/10/2 10/6/2
s 4
f 6/12/3 4/9/3 11/13/3
f 11/13/3 4/9/3 9/11/3
s 2
f 8/14/4 6/12/4 12/15/4
f 12/15/4 6/12/4 11/13/4
s 4
f 2/10/5 8/16/5 10/6/5
f 10/6/5 8/16/5 12/17/5
s 1
f 12/4/6 11/18/6 10/6/6
f 10/6/6 11/18/6 9/11/6
s 2
f 13/19/4 14/20/4 7/21/4
f 7/21/4 14/20/4 5/22/4
s 4
f 15/23/5 13/24/5 1/25/5
f 1/25/5 13/24/5 7/26/5
s 2
f 16/27/2 15/28/2 3/22/2
f 3/22/2 15/28/2 1/21/2
s 4
f 14/24/3 16/23/3 5/29/3
f 5/29/3 16/23/3 3/19/3
s 1
f 13/30/6 17/31/6 18/32/6
f 17/31/6 13/30/6 19/33/6
f 19/33/6 13/30/6 15/34/6
f 19/33/6 15/34/6 20/35/6
f 20/35/6 15/34/6 16/36/6
f 20/35/6 16/36/6 18/32/6
f 18/32/6 16/36/6 14/37/6
f 18/32/6 14/37/6 13/30/6
s 2
f 21/38/4 22/39/4 17/31/4
f 17/31/4 22/39/4 18/32/4
s 4
f 23/40/5 21/41/5 19/33/5
f 19/33/5 21/41/5 17/31/5
s 2
f 24/42/2 23/43/2 20/35/2
f 20/35/2 23/43/2 19/33/2
s 4
f 22/44/3 24/45/3 18/32/3
f 18/32/3 24/45/3 20/35/3
s 1
f 23/46/1 24/47/1 21/38/1
f 21/38/1 24/47/1 22/39/1
# 0 polygons - 44 triangles

